<svg xmlns="http://www.w3.org/2000/svg" viewBox="0 0 149.21 116.5"><defs><style>.cls-1{fill:#fff;}</style></defs><title>asistencia</title><g id="Capa_2" data-name="Capa 2"><g id="Capa_1-2" data-name="Capa 1"><path class="cls-1" d="M.15,51.34c2.12,0,4.19-.06,6.25,0,8.67.3,17.35.65,26,1A5.19,5.19,0,0,0,33.78,52c-.24-.39-.4-.92-.74-1.15-3.66-2.44-7.26-5-11-7.22-7-4.15-14-8.14-21-12.16a1.59,1.59,0,0,1-1-1.64c.08-1.47,0-3,0-4.73l49.8,25.54C52.4,47,54.87,43.5,57.44,40c6.71-9,13.27-18.18,20.28-27,3.6-4.52,8-8.38,12.1-12.53A4,4,0,0,1,90.69,0L91,.27a12.55,12.55,0,0,1-.75,1.4q-16.17,24.48-32.32,49a16.33,16.33,0,0,0-1.31,3.81c2.7.19,5,.33,7.32.53,11.29,1,22.58,2,33.86,3,6.07.56,11.67,2.85,17.25,5.09,2.28.91,4.5,1.95,6.75,2.9a4.35,4.35,0,0,1,2.61,3c1,3.22,2,6.41,3,9.63a6.55,6.55,0,0,1,.26,2.56c-.4,3-.94,6-1.38,9A7,7,0,0,0,128,95.63c.52.64,1.17,1.17,1.75,1.77.85.88.74,1.26-.47,1.55a79.66,79.66,0,0,1-18.06,2.65c-4.52.05-9,.33-13.56.61-1.25.07-1.55-.37-1.63-1.52-.42-5.46-.91-11-2.51-16.21-3.28-10.81-10.4-15.27-19.48-16a26,26,0,0,0-11.3,1.3C56.86,72,53.2,76.37,51,82.11c-2.3,6-1.72,12.23-1.23,18.64L.15,100.11ZM95.44,65.08c-1.48-.08-1.74,0-1.65,1.55a42.78,42.78,0,0,0,.71,5.15,1.86,1.86,0,0,0,1.7,1.57l18.11,2.59c.87.12,1.17-.22.82-1.07-.48-1.19-.9-2.41-1.44-3.58A7,7,0,0,0,108.24,67C104,66.3,99.71,65.72,95.44,65.08Zm23.68,3.72-.35.26c.9,2.6,1.77,5.22,2.75,7.79.17.47.76.78,1.16,1.17l.26-.25c-.84-2.51-1.63-5-2.54-7.52C120.19,69.69,119.56,69.28,119.12,68.8Zm3,.78-.45.27c.92,2.63,1.81,5.27,2.79,7.88.16.43.71.71,1.2,1.17,0-.36.11-.49.08-.59-.78-2.4-1.53-4.8-2.39-7.17A6.6,6.6,0,0,0,122.08,69.58Zm-2.28,7.68.3-.21c-.86-2.57-1.68-5.16-2.62-7.7-.19-.5-.81-.85-1.23-1.26l-.3.25c.88,2.56,1.72,5.15,2.67,7.69C118.8,76.52,119.4,76.85,119.8,77.26Z"/><path class="cls-1" d="M121.56,45.15c-.38.68-.71,1.2-1,1.75A10,10,0,0,1,115,52c-4,1.62-8,3.32-12.08,5-3.37,1.4-6.84.1-8.12-3S95,47.44,98.38,46c3.64-1.52,7.29-3,10.9-4.59a3.33,3.33,0,0,0,1.43-1.25c1.83-3,3.5-6,5.38-9A13.41,13.41,0,0,1,124.51,25,7.77,7.77,0,0,1,133,28.37c5.14,7.4,10.15,14.89,15.19,22.35,1.24,1.83,1.05,3.88.84,5.91-.55,5.37-.95,10.76-1.69,16.11-1,7.42-.44,14.84-.31,22.26.06,3.07.2,6.14.23,9.21a6.54,6.54,0,0,1-13.08.26c-.25-8-.63-16.1-.59-24.16a126.15,126.15,0,0,1,1.23-13.26,5,5,0,0,0-.86-3.7c-3.81-5.44-7.49-11-11.22-16.47C122.4,46.35,122,45.82,121.56,45.15Z"/><path class="cls-1" d="M74.06,116.5H2.78c-1.68-.06-2.73-1-2.72-2.45a2.44,2.44,0,0,1,2.65-2.38c2.32,0,4.65,0,7,0H134.78c3.28,0,6.56,0,9.83,0a6.61,6.61,0,0,1,1.61.12A2.28,2.28,0,0,1,148,114a2.32,2.32,0,0,1-1.85,2.34,7.37,7.37,0,0,1-1.49.11H74.06Z"/><path class="cls-1" d="M92,90.83a20,20,0,1,1-19.8-20.06A20,20,0,0,1,92,90.83Zm-3.83-.06a16.22,16.22,0,1,0-16.06,16.29A16.18,16.18,0,0,0,88.12,90.77Z"/><path class="cls-1" d="M124.51,16.26A9.59,9.59,0,0,1,114.72,26a11.67,11.67,0,0,1-11.24-11.92,9.51,9.51,0,0,1,9.76-9.51A11.7,11.7,0,0,1,124.51,16.26Z"/><path class="cls-1" d="M71.88,105.89A15.07,15.07,0,1,1,87,90.89,15,15,0,0,1,71.88,105.89Zm0-29.5A14.46,14.46,0,1,0,86.34,90.77,14.46,14.46,0,0,0,71.87,76.39Z"/><path class="cls-1" d="M63.62,102.15l-2-1.72L67,92.93,70.35,96Z"/><path class="cls-1" d="M68.23,86.94,66.53,91l-8-3.77a1.53,1.53,0,0,1,0-.45c.77-2.59.77-2.6,3.33-1.83C64,85.63,66.16,86.31,68.23,86.94Z"/><path class="cls-1" d="M84.86,85.3c.3,1,.56,2,.85,3l-8.52,3.28c-.42-1.42-.81-2.77-1.25-4.24Z"/><path class="cls-1" d="M70.34,76.92h3.1c.24,3.08.47,6.11.69,9.06H69.68Z"/><path class="cls-1" d="M72.51,96a16.76,16.76,0,0,0,2.11-1,12.38,12.38,0,0,0,1.65-1.43l4.49,8.15-2.53,1.66Z"/><path class="cls-1" d="M71.88,94a3.18,3.18,0,0,1,0-6.35,3.21,3.21,0,0,1,3.23,3.24A3.17,3.17,0,0,1,71.88,94Z"/></g></g></svg>