<svg xmlns="http://www.w3.org/2000/svg" viewBox="0 0 139.23 114.43"><defs><style>.cls-1{fill:#fff;}</style></defs><title>elije</title><g id="Capa_2" data-name="Capa 2"><g id="Capa_1-2" data-name="Capa 1"><path class="cls-1" d="M101.22,30.91a25.52,25.52,0,0,1,2.59-2c.45-.26,1.18,0,1.72-.17,1.36-.47,2.68-1.06,4-1.59a35,35,0,0,1-2.24-3.36c-1.15-2.19-2.56-4.36-3.14-6.72a42.94,42.94,0,0,1-1.07-9.4A6.87,6.87,0,0,1,109,.39a41.13,41.13,0,0,1,10.4-.11c4.82.57,7.45,4.09,6.91,9.3a67.55,67.55,0,0,1-2.79,12.06c-.36,1.24-1.64,2.25-2.59,3.28-1.71,1.85-1.43,3.08,1,3.61,1.85.4,3.79.43,5.64.81a6.62,6.62,0,0,1,4.88,4.25c1.94,4.51,4,9,6,13.46,1.47,3.39.9,5-2.31,6.79-2.33,1.3-4.68,2.56-7,3.88-.56.32-1.49.83-1.47,1.2.19,3.25-2.07,5.84-1.83,9.29.75,10.82.91,21.69,1.14,32.54.06,2.63.37,4.48,3.34,5.42,1.58.5,3,2.11,4.06,3.53a2.79,2.79,0,0,1-2.27,4.63c-4.26.14-8.52.13-12.78,0-2.34-.07-3.73-2-2.57-4.55,2.76-6.14.25-12.17.2-18.22,0-3.4-.54-6.8-.89-10.19a7.44,7.44,0,0,0-1.17-3.46q0,15.52,0,31.05a5.56,5.56,0,0,1-5.51,5.41c-3.67,0-7.35.15-11-.09-1.21-.07-2.36-1.13-3.53-1.76-4-2.15-1.58-6.08-2.57-9.29H27.75v8H5.6c0-2,0-4,0-5.92-.25-10.48-.58-21-.71-31.45A6.55,6.55,0,0,1,6.45,70c2.61-3.1,5.46-6,8.8-9.59a41.73,41.73,0,0,0-5.68-1.47,66.25,66.25,0,0,0-6.76-.06C1.07,58.84.29,58,.16,56.24c-.48-6.4-.23-6.7,6.16-6.7H9.83c6,0,6,0,9.4,5.25.59-.77,1.13-1.42,1.61-2.11,3.62-5.33,7.5-10.36,14.38-11.57a63.94,63.94,0,0,1,9.91-1.17c9.77-.16,19.55-.23,29.32,0,6.15.15,12.37.61,17.87,4.58,1.69-3.75,3.21-7.35,4.93-10.85A16.69,16.69,0,0,1,100,30.23c.09-.1.87.41,1.34.63a.6.6,0,0,1,.2.14.58.58,0,0,1,.07.22l-1.87.52C96.28,43,90.21,53.21,82.87,63.08c1.06.3,2.36.6,2.8.12C90.26,58.19,96,54.15,99.23,48c1.41-2.69,3-5.29,4.46-7.94l.93.08a7.86,7.86,0,0,1,.18,2c-.22,1.45-.77,2.86-.85,4.3-.13,2.83,0,5.67,0,8.51v5.92H110a3.19,3.19,0,0,0,.3-.84c0-7.84.07-15.68,0-23.52a4,4,0,0,0-.86-2c-1.75-2.49-3.65-4.74-7.23-3.56A3.71,3.71,0,0,1,101.22,30.91Zm11.14,22.93v9c-2,0-3.87-.3-5.51.1a11.79,11.79,0,0,0-3.37,2l-5.3-10.74L97,54.55c-2,2.64,2.4,3.88,1.83,6.46a23.44,23.44,0,0,1-3.65,0c-3.32-.51-5.7.76-7.77,3.31-2.75,3.39-6.62,4.07-10.7,3.4a3.12,3.12,0,0,1-2-2c-.14-.62.77-1.76,1.49-2.19s2-.35,2.89-.64a11.2,11.2,0,0,0,2-1.07L80.83,61H20.22c1.85-2.69,3.37-4.86,4.85-7.07,3.85-5.79,9.18-9.3,16.14-9.59q15.26-.62,30.53-.57c6.43,0,12.88.56,18.31,4.7,1.47-1.22,1.54-2.39-.15-3.12-2.34-1-4.73-2.3-7.2-2.61C68.47,41,54.19,41.4,39.92,42.26c-7.18.43-12.49,3.91-16.39,10A115.42,115.42,0,0,1,15.09,63.4c-2.7,3.25-5.71,6.23-8.54,9.28a9.3,9.3,0,0,0,11.56,3.26,9,9,0,0,1,8.85.45,6.83,6.83,0,0,0,3.23,1q30.08.09,60.15,0a5.54,5.54,0,0,0,2.78-.77,9.41,9.41,0,0,1,7.16-1.39,3.17,3.17,0,0,0,1.62-.08,4.82,4.82,0,0,0,1.24-.91c.27.62.79,1.25.76,1.86-.23,5.42-.58,10.84-.85,16.26-.21,4-.36,7.93-.54,12.23a29.76,29.76,0,0,1,3.92,0c2,.26,2.7-.38,2.71-2.42a65.27,65.27,0,0,1,.64-7q1.17-10.68,2.37-21.35c.49-4.37,1-8.74,1.53-13.27h3.49V53.84ZM36.87,89.42h-30c-.91,3,.43,5.17,1.78,7.58,2,3.61,4.63,4.58,8.67,4.52,22.62-.28,45.25-.26,67.87-.33,5.08,0,10.16,0,15.4,0l.18-4c-2.36,0-4.43,0-6.5,0-1.64,0-2.07-.6-1.3-2.28h8.08V89.24c-5.25,0-10.33.08-15.42,0-2,0-2.43.7-2.35,2.48.12,2.64,0,5.29,0,8H36.87Zm53.07-10H30.4L28,87.38c2.45,0,5.11.06,7.77,0,.55,0,1.06-.64,1.62-.9,1.15-.52,2.31-1.4,3.48-1.4,12.94-.11,25.88-.08,38.82,0a3.83,3.83,0,0,1,2.56.66c3.22,3.53,7,1,10.14,1.65C91.52,84.58,90.79,82.2,89.94,79.44Zm-8.4,18.65c0-3.2-.07-6,0-8.85.07-1.89-.77-2.45-2.54-2.45q-18.9.06-37.8,0c-1.9,0-2.5.85-2.46,2.59.06,2.16.1,4.34,0,6.5-.09,1.81.71,2.25,2.37,2.22,4.59-.08,9.18,0,13.77,0Zm44.1-37.26c0-2.67,0-5.07,0-7.47,0-.53-.55-1-.84-1.56a7.17,7.17,0,0,1-1,1.16,12.11,12.11,0,0,1-1.49.87c-.2-.48-.71-1.21-.55-1.41,1-1.2,2-2.28,3.09-3.4l1.13.4c-.4-2.56-.86-5.11-1.16-7.67-.07-.58.4-1.23.75-2.22,2,2.63,3.43,4.64,4.92,6.64,2,2.7,2,2.84-.86,4.44-2.46,1.37-2.75,2.3-1.53,5.38,2.64-1.44,5.35-2.71,7.81-4.37a3.4,3.4,0,0,0,.94-3.11c-2-4.94-4.16-9.79-6.4-14.61-1-2.23-4.82-3.82-7.31-3.29-1.55.32-3.74,3.78-3.74,5.93q0,10.91,0,21.79c0,.8.09,1.61.14,2.5Zm-.49,43.7c0-1.28,0-2.18,0-3.08-.31-10.66-.69-21.33-.93-32-.15-7-.06-7-7.2-6.59-.14,0-.27.15-.75.44.2,1.71.45,3.58.62,5.45,1,11.26,2.07,22.52,3,33.78.13,1.5.66,2.12,2.14,2C123,104.48,123.86,104.53,125.15,104.53ZM115,9H111.2c-2.86,0-3.63.7-3.79,3.64-.11,2.08,0,4.17-.11,6.25-.14,2.25.86,3.72,2.56,5.06.79.62,1,1.88,1.67,2.77.74,1.07,1.67,2.93,2.42,2.88,1.35-.08,3.67-1.24,3.74-2.1.22-2.63,2-3.84,3.42-5.52a4.66,4.66,0,0,0,1-2.48,43.46,43.46,0,0,0,0-6.25C121.78,9.64,121,9,117.45,9ZM76.6,46.45l-.29-.88c-3.37,0-6.74.1-10.1,0-2.17-.09-3.72.39-5,2.4-1.8,2.89-4,5.56-5.94,8.34-.54.76-1,1.58-1.75,2.76,4.72,0,8.88,0,13,0a1.89,1.89,0,0,0,1.32-.51C70.85,54.51,73.71,50.47,76.6,46.45Zm-29.45-.4c-9.24-1.56-20.75,5.19-22.52,13,4,0,8,0,12,0a2.41,2.41,0,0,0,1.71-.75C41.27,54.32,44.1,50.32,47.15,46.05ZM40.32,59c3.73,0,6.79,0,9.85,0a1.82,1.82,0,0,0,1.25-.64c3-4.08,5.9-8.2,9.09-12.66-3.66,0-6.8,0-9.94,0a2.14,2.14,0,0,0-1.37.91C46.36,50.54,43.57,54.47,40.32,59ZM7.71,109.49h18v-6.18c-3.56,0-6.9-.18-10.2.06-3.14.22-5.73-.2-7.13-3.41-.05-.13-.4-.12-.81-.24,0,2.71,0,5.28,0,7.85C7.59,108.14,7.66,108.7,7.71,109.49ZM123.77,10.84c1.13-5.66-.53-8.19-5.86-9a23.57,23.57,0,0,0-6.71,0c-5.35.8-7.25,3.88-6,9.17,3-5,2-4.05,7.06-4.16,1.67,0,3.36.14,5,0C120.47,6.56,123,7.18,123.77,10.84ZM22,86.52c3.34,0,5.84-2,5.83-4.85,0-2.56-2.65-4.79-5.68-4.82s-6.05,2.42-6,4.91S19,86.49,22,86.52ZM2.2,56.79l1.72.13c3.9.28,8-1,11.6,1.77.21.17,2.07-1.25,2-1.35-1-2-1.88-5.18-3.33-5.47-3.82-.77-7.89-.26-12-.26ZM6.6,76.66c0,3.15,0,6.21,0,9.28,0,.48.64,1.33,1,1.34,3,.11,6,.07,9,.07a8.39,8.39,0,0,1-2-8.11Zm91.73,9.86c3,0,3.76-1.4,3.67-7.15,0-2.67-2.25-2.38-3.82-2.46-2.93-.16-5.78,2.32-5.85,4.75S95.27,86.55,98.33,86.52ZM76.84,58.72c4,.86,7.08.5,8.74-3.34a14.88,14.88,0,0,1,1.7-2.47c2-2.85,1.91-3.12-1.3-4.65a12.12,12.12,0,0,0-1.4-.45Zm19.67,52.65.5.76h15c-1.06-2.17-1.51-4.72-2.66-5.09-2.24-.71-4.86-.21-7.23-.21l-.61,2.9-2.27-1.52Zm36.43.67.45-.85c-1.08-.88-2.92-2.68-3.12-2.51-2.65,2.22-2-.91-3.14-1.88h-3.89c-3.66,0-4.87,1.32-4.6,5.24ZM82.52,47.32l-.35-.75c-1.18.15-2.9-.15-3.43.52-2.94,3.69-5.59,7.62-8.82,12.13,2-.26,3.84,0,4.42-.67C77.24,55,79.82,51.09,82.52,47.32Zm17.86,55.47c-2,.26-4.75-.13-5.42.88-.91,1.36-.23,3.78-.23,6C100.45,105,100.45,105,100.38,102.79Zm14.7-55.37c1.31-4.6.37-9.13-.33-13.67C115,38.32,112.74,42.9,115.08,47.42Zm-2.24,50.91c-2.54,3-2.45,6.7,0,9ZM101.91,48.09c-3.48,3.51-3.49,4.89,0,8Zm13.14,3-2.52-2.75v3.09c4.31.85,5.09.43,4.21-2.37ZM113,31.18,109,29.75l-.39.83,2.54,2.8Zm7.17-.69-.54-.91-3.69,1.89,2,1.81Z"/><path class="cls-1" d="M27.78,95.79c-.55.49-1.08,1.35-1.66,1.38-2.82.15-5.65.11-8.48,0-.44,0-.85-.68-1.28-1,.43-.36.86-1,1.3-1,3.22-.09,6.45-.05,9.68-.05Z"/><path class="cls-1" d="M59.65,91.32c-3.16,0-6.32,0-9.48,0-.56,0-1.11-.56-1.67-.86.54-.32,1.09-.93,1.64-.94q9.72-.09,19.45,0c.56,0,1.12.59,1.68.9-.55.32-1.09.88-1.64.9C66.3,91.36,63,91.32,59.65,91.32Z"/><path class="cls-1" d="M59.86,95.36c-3.25,0-6.5,0-9.75,0-.54,0-1.06-.63-1.6-1,.52-.27,1-.76,1.55-.76q9.87-.09,19.75,0c.48,0,1,.54,1.45.83-.47.31-.93.88-1.41.89C66.52,95.4,63.19,95.36,59.86,95.36Z"/><path class="cls-1" d="M119.71,20c-3.51,2.84-6.08,2.76-9.27-.06.42-.26.82-.71,1.19-.69C114.21,19.47,116.78,19.76,119.71,20Z"/></g></g></svg>