<svg xmlns="http://www.w3.org/2000/svg" viewBox="0 0 25 25"><defs><style>.cls-1{fill:#ff7502;}</style></defs><title>facebook</title><g id="Capa_2" data-name="Capa 2"><g id="Capa_1-2" data-name="Capa 1"><path class="cls-1" d="M25,12.52v9.92A2.34,2.34,0,0,1,22.42,25H2.58A2.34,2.34,0,0,1,0,22.44V2.53A2.34,2.34,0,0,1,2.55,0H22.46A2.33,2.33,0,0,1,25,2.54ZM9.68,22.08H14V12.42h2.94V8.86H14c0-.54,0-1,0-1.46,0-.65.26-.88.93-.88h2L17.33,3c-1.62,0-3.16-.08-4.7-.06A2.84,2.84,0,0,0,9.69,5.85c0,.63,0,1.26,0,1.89V9H7.76v3.5H9.68Z"/></g></g></svg>