<svg xmlns="http://www.w3.org/2000/svg" viewBox="0 0 25 25.01"><defs><style>.cls-1{fill:#ff7502;}</style></defs><title>instagram</title><g id="Capa_2" data-name="Capa 2"><g id="Capa_1-2" data-name="Capa 1"><path class="cls-1" d="M12.49,0c1.88,0,3.76-.06,5.64,0A7.13,7.13,0,0,1,25,7c.07,3.67.07,7.36,0,11a7,7,0,0,1-6.69,6.9c-4,.19-8,.16-11.92,0A7,7,0,0,1,0,17.91Q0,12.45,0,7A7.14,7.14,0,0,1,6.74,0C8.65,0,10.57,0,12.49,0Zm0,22.6h0c1.84,0,3.68,0,5.52,0a4.81,4.81,0,0,0,4.6-4.38c.09-1,.11-2,.1-3,0-2.77,0-5.54-.09-8.31a4.82,4.82,0,0,0-5-4.57q-5.13,0-10.26,0a4.92,4.92,0,0,0-5,4.87q-.08,5.29,0,10.57a4.87,4.87,0,0,0,4.85,4.85C8.94,22.65,10.7,22.62,12.46,22.62Z"/><path class="cls-1" d="M6.05,12.47a6.44,6.44,0,1,1,6.43,6.46A6.44,6.44,0,0,1,6.05,12.47Zm6.46-4.11a4.12,4.12,0,1,0,4.11,4.12A4.13,4.13,0,0,0,12.51,8.36Z"/><path class="cls-1" d="M19,7.33A1.39,1.39,0,0,1,17.55,5.9,1.45,1.45,0,0,1,19,4.44a1.52,1.52,0,0,1,1.47,1.49A1.44,1.44,0,0,1,19,7.33Z"/></g></g></svg>