<svg xmlns="http://www.w3.org/2000/svg" viewBox="0 0 167.53 54.06"><defs><style>.cls-1{fill:#ee771a;}</style></defs><title>logo_color</title><g id="Capa_2" data-name="Capa 2"><g id="Capa_1-2" data-name="Capa 1"><path class="cls-1" d="M58.93,54l-.59-4.37h.59L59.24,52q0,.41.12,1.29c.12-.32.27-.67.46-1.07L61,49.59h.65l-2,4.37Z"/><path class="cls-1" d="M65.68,54l.75-4.37H67L66.29,54Zm.89-5.19.14-.85h.61l-.14.85Z"/><path class="cls-1" d="M72.36,54l-.59-4.37h.59L72.67,52c0,.27.08.7.13,1.29a10.47,10.47,0,0,1,.45-1.07l1.19-2.63h.65L73,54Z"/><path class="cls-1" d="M81.76,52.47l.6.08a2.13,2.13,0,0,1-.69,1.11,1.45,1.45,0,0,1-1,.4,1.26,1.26,0,0,1-.71-.21,1.46,1.46,0,0,1-.52-.64,2.51,2.51,0,0,1-.19-1,3.44,3.44,0,0,1,.3-1.44,2.21,2.21,0,0,1,.71-1,1.47,1.47,0,0,1,.91-.31,1.27,1.27,0,0,1,1,.47,2.06,2.06,0,0,1,.39,1.34,5.07,5.07,0,0,1,0,.66H79.88a2,2,0,0,0,0,.23,1.63,1.63,0,0,0,.23.94.71.71,0,0,0,.57.32,1,1,0,0,0,.62-.25,1.62,1.62,0,0,0,.47-.73M80,51.39h2v-.15a1.42,1.42,0,0,0-.23-.88.72.72,0,0,0-.59-.3,1,1,0,0,0-.71.34,2.09,2.09,0,0,0-.49,1"/><path class="cls-1" d="M93.37,52.47l.61,0a1.16,1.16,0,0,0,.23.8.82.82,0,0,0,.65.26.93.93,0,0,0,.6-.18.64.64,0,0,0,.22-.48.59.59,0,0,0-.14-.38,1.94,1.94,0,0,0-.61-.41,3.62,3.62,0,0,1-.7-.44,1.07,1.07,0,0,1-.27-.36,1.3,1.3,0,0,1-.09-.49,1.25,1.25,0,0,1,.35-.9,1.29,1.29,0,0,1,.93-.35,1.39,1.39,0,0,1,1,.36,1.43,1.43,0,0,1,.39,1l-.6.05a.9.9,0,0,0-.24-.63.81.81,0,0,0-.6-.22.68.68,0,0,0-.48.16.49.49,0,0,0-.19.39.52.52,0,0,0,.11.32,1.91,1.91,0,0,0,.57.38,3.39,3.39,0,0,1,.88.58,1.27,1.27,0,0,1,.29.83,1.31,1.31,0,0,1-.38.94,1.45,1.45,0,0,1-1.07.39,1.43,1.43,0,0,1-1.08-.4,1.5,1.5,0,0,1-.39-1.11Z"/><path class="cls-1" d="M101,54l.75-4.37h.61L101.6,54Zm.89-5.19.14-.85h.62l-.15.85Z"/><path class="cls-1" d="M106.76,54l.75-4.37h.56l-.13.76a2.83,2.83,0,0,1,.71-.67,1.2,1.2,0,0,1,.62-.19.9.9,0,0,1,.69.28,1.15,1.15,0,0,1,.25.8,5.11,5.11,0,0,1-.09.75L109.64,54H109l.5-2.77a3.81,3.81,0,0,0,.08-.6.49.49,0,0,0-.14-.36.48.48,0,0,0-.35-.13,1.13,1.13,0,0,0-.84.41,2.85,2.85,0,0,0-.55,1.42l-.35,2Z"/><polygon class="cls-1" points="120.92 53.96 121.96 47.92 122.57 47.92 121.54 53.96 120.92 53.96"/><path class="cls-1" d="M126.92,54l.75-4.37h.61L127.53,54Zm.46-4.9.63-1.14h.77l-.9,1.14Z"/><path class="cls-1" d="M132.86,54l.75-4.37h.61l-.12.72a2.44,2.44,0,0,1,.63-.65,1,1,0,0,1,.57-.17.79.79,0,0,1,.56.21,1,1,0,0,1,.31.61,2.17,2.17,0,0,1,.57-.62,1.2,1.2,0,0,1,.64-.2.87.87,0,0,1,.67.25,1.06,1.06,0,0,1,.23.73,5.06,5.06,0,0,1-.08.68L137.69,54h-.61l.52-2.89a3.6,3.6,0,0,0,.06-.51.5.5,0,0,0-.11-.34.41.41,0,0,0-.31-.12,1,1,0,0,0-.54.19,1.31,1.31,0,0,0-.45.51,4,4,0,0,0-.29,1L135.58,54H135l.53-3a3.75,3.75,0,0,0,0-.43.52.52,0,0,0-.11-.35.36.36,0,0,0-.29-.13,1.06,1.06,0,0,0-.78.42,2.81,2.81,0,0,0-.53,1.37L133.47,54Z"/><path class="cls-1" d="M142.82,54l.75-4.37h.61L143.44,54Zm.89-5.19.14-.85h.62l-.15.85Z"/><path class="cls-1" d="M150,53.36l-.1.61a1.53,1.53,0,0,1-.41.07.74.74,0,0,1-.53-.19.62.62,0,0,1-.19-.48,5.36,5.36,0,0,1,.09-.67l.43-2.54h-.48l.1-.57h.48l.18-1.05.7-.52L150,49.59h.6l-.1.57h-.6l-.41,2.42c0,.31-.08.49-.08.55a.28.28,0,0,0,.07.21.26.26,0,0,0,.19.07,1.14,1.14,0,0,0,.33,0"/><path class="cls-1" d="M157.37,52.47l.6.08a2.13,2.13,0,0,1-.69,1.11,1.45,1.45,0,0,1-1,.4,1.32,1.32,0,0,1-.72-.21,1.51,1.51,0,0,1-.51-.64,2.51,2.51,0,0,1-.19-1,3.6,3.6,0,0,1,.29-1.44,2.29,2.29,0,0,1,.71-1,1.49,1.49,0,0,1,.91-.31,1.27,1.27,0,0,1,1,.47,2.06,2.06,0,0,1,.39,1.34,5.07,5.07,0,0,1,0,.66h-2.65a2,2,0,0,0,0,.23,1.63,1.63,0,0,0,.23.94.71.71,0,0,0,.57.32,1,1,0,0,0,.62-.25,1.62,1.62,0,0,0,.47-.73m-1.78-1.08h2v-.15a1.42,1.42,0,0,0-.23-.88.73.73,0,0,0-.59-.3,1,1,0,0,0-.72.34,2.18,2.18,0,0,0-.48,1"/><path class="cls-1" d="M162.84,52.47l.61,0a1.11,1.11,0,0,0,.23.8.82.82,0,0,0,.65.26.93.93,0,0,0,.6-.18.63.63,0,0,0,.21-.48.58.58,0,0,0-.13-.38,2.08,2.08,0,0,0-.61-.41,3.62,3.62,0,0,1-.7-.44,1,1,0,0,1-.27-.36,1.3,1.3,0,0,1-.09-.49,1.21,1.21,0,0,1,.35-.9,1.29,1.29,0,0,1,.93-.35,1.39,1.39,0,0,1,1,.36,1.43,1.43,0,0,1,.39,1l-.6.05a.9.9,0,0,0-.24-.63.81.81,0,0,0-.6-.22.72.72,0,0,0-.49.16.52.52,0,0,0-.07.71,1.82,1.82,0,0,0,.56.38,3.5,3.5,0,0,1,.89.58,1.33,1.33,0,0,1-.1,1.77,1.41,1.41,0,0,1-1.06.39,1.43,1.43,0,0,1-1.08-.4,1.5,1.5,0,0,1-.39-1.11Z"/><path class="cls-1" d="M66.64,31.6a6.38,6.38,0,0,1,1.68.17,3.22,3.22,0,0,1,1.29.61,2.77,2.77,0,0,1,.83,1.12,4.51,4.51,0,0,1,.29,1.7,3.9,3.9,0,0,1-.23,1.32,3.65,3.65,0,0,1-.66,1.13,3.9,3.9,0,0,1-1,.81,3.46,3.46,0,0,1-1.27.42v0a1.71,1.71,0,0,1,1.13.93A3.77,3.77,0,0,1,69,41.34c0,.31,0,.68,0,1.11s0,.85,0,1.28,0,.6,0,.87a3.24,3.24,0,0,0,.15.72H66.16c0-.17-.08-.32-.1-.47a2.28,2.28,0,0,1,0-.45A13,13,0,0,1,66.1,43a13.26,13.26,0,0,0,.07-1.4A1.9,1.9,0,0,0,66,40.8a1.29,1.29,0,0,0-.4-.51A1.43,1.43,0,0,0,65,40a4,4,0,0,0-.8-.07H61.35l-1.13,5.36h-3L60.08,31.6Zm-2,6.21a4.94,4.94,0,0,0,1.17-.13,3.34,3.34,0,0,0,1-.38,2,2,0,0,0,.69-.67,1.79,1.79,0,0,0,.26-1,2,2,0,0,0-.18-.9,1.34,1.34,0,0,0-.49-.51,2.2,2.2,0,0,0-.71-.23,7.62,7.62,0,0,0-.85,0H62.62l-.81,3.86Z"/><polygon class="cls-1" points="84.43 31.6 83.91 34.14 76.45 34.14 75.84 37.08 82.74 37.08 82.24 39.42 75.34 39.42 74.63 42.78 82.2 42.78 81.66 45.32 71.09 45.32 73.96 31.6 84.43 31.6"/><polygon class="cls-1" points="89.9 31.6 93.63 41.36 93.67 41.36 95.63 31.6 98.4 31.6 95.5 45.32 92.48 45.32 88.71 35.7 88.67 35.7 86.71 45.32 83.91 45.32 86.79 31.6 89.9 31.6"/><polygon class="cls-1" points="99.24 34.14 99.78 31.6 111.23 31.6 110.69 34.14 106.58 34.14 104.24 45.32 101.2 45.32 103.55 34.14 99.24 34.14"/><path class="cls-1" d="M117.9,31.6l2.28,13.72h-3l-.44-3h-5.13l-1.73,3h-3.17L114.8,31.6ZM116.48,40l-.68-5.46h0l-3,5.46Z"/><path class="cls-1" d="M136.68,34.46a2.5,2.5,0,0,0-1.78-.65,3.77,3.77,0,0,0-2,.53,4.54,4.54,0,0,0-1.4,1.36,6.17,6.17,0,0,0-.81,1.87,7.83,7.83,0,0,0-.27,2,4.87,4.87,0,0,0,.18,1.34,3.28,3.28,0,0,0,.56,1.12,2.63,2.63,0,0,0,1,.78,3.06,3.06,0,0,0,1.41.29,3,3,0,0,0,1.16-.22,3.3,3.3,0,0,0,1-.6,3.52,3.52,0,0,0,.71-.87,3.37,3.37,0,0,0,.39-1h3a10.69,10.69,0,0,1-1.08,2.44,6.69,6.69,0,0,1-1.4,1.63,5.2,5.2,0,0,1-1.73.9,7.24,7.24,0,0,1-2.07.28A6.16,6.16,0,0,1,129,44.07a6,6,0,0,1-1.58-4.49,9.45,9.45,0,0,1,.52-3.17,8.12,8.12,0,0,1,1.49-2.65,7.42,7.42,0,0,1,7.69-2.16,4.93,4.93,0,0,1,1.76,1,4.22,4.22,0,0,1,1.14,1.6,5.37,5.37,0,0,1,.39,2.2h-3a2.5,2.5,0,0,0-.68-1.91"/><path class="cls-1" d="M150.64,31.6l2.29,13.72h-3l-.44-3h-5.13l-1.73,3h-3.17l8.09-13.72ZM149.22,40l-.68-5.46h0l-3,5.46Z"/><path class="cls-1" d="M163.44,31.6a6.38,6.38,0,0,1,1.68.17,3.15,3.15,0,0,1,1.29.61,2.77,2.77,0,0,1,.83,1.12,4.51,4.51,0,0,1,.29,1.7,3.9,3.9,0,0,1-.23,1.32,3.65,3.65,0,0,1-.66,1.13,3.9,3.9,0,0,1-1,.81,3.46,3.46,0,0,1-1.27.42v0a1.71,1.71,0,0,1,1.13.93,3.77,3.77,0,0,1,.29,1.49c0,.31,0,.68-.05,1.11s-.05.85-.05,1.28,0,.6,0,.87a3.24,3.24,0,0,0,.15.72H163c0-.17-.08-.32-.1-.47a2.28,2.28,0,0,1,0-.45A13,13,0,0,1,162.9,43a13.26,13.26,0,0,0,.07-1.4,1.9,1.9,0,0,0-.14-.81,1.29,1.29,0,0,0-.4-.51,1.43,1.43,0,0,0-.63-.26A4,4,0,0,0,161,40h-2.85L157,45.32h-3l2.86-13.72Zm-2,6.21a4.94,4.94,0,0,0,1.17-.13,3.34,3.34,0,0,0,1-.38,2,2,0,0,0,.69-.67,1.87,1.87,0,0,0,.26-1,2,2,0,0,0-.18-.9,1.34,1.34,0,0,0-.49-.51,2.2,2.2,0,0,0-.71-.23,7.62,7.62,0,0,0-.85,0h-2.86l-.81,3.86Z"/><path class="cls-1" d="M15.44,30.24A3.78,3.78,0,1,0,19.22,34a3.77,3.77,0,0,0-3.78-3.77m0,5A1.22,1.22,0,1,1,16.66,34a1.22,1.22,0,0,1-1.22,1.22"/><path class="cls-1" d="M28.06,35.7l4.58-7.88a1.4,1.4,0,0,1-.13-.36,2.22,2.22,0,0,1,.36-1.59v0l-8.08.53V24.72a15.45,15.45,0,0,1,5.87-2.5c.34,0,.68-.08,1-.1a2,2,0,0,1,.21-.45l.53-.91a17.9,17.9,0,0,0-10,3.39,11.93,11.93,0,0,1-3,1.29,6.5,6.5,0,0,0-1.1.22,3.84,3.84,0,0,1-1.68.53,80.4,80.4,0,0,0-9.42,2.46c-1.4.63-1.21,1.71-1.57,2s-.3.72-.27,1.3.07.32.23.35.15,0,.16.18a9,9,0,0,1-.23,2,.46.46,0,0,0-.14.36,21.57,21.57,0,0,0,4.5,1,1.33,1.33,0,0,0,.8-.21A4.9,4.9,0,0,1,10.42,34,5,5,0,1,1,20,35.74Zm-18.16-6A4.74,4.74,0,0,1,7,30.83c-1.12,0-.85-.72-.75-.9a3.58,3.58,0,0,1,2.08-1.06,10,10,0,0,1,2.22-.19c.08.16.07.39-.61,1"/><path class="cls-1" d="M46.27,18.88l-3.72-2.16a.66.66,0,0,0-.91.24.67.67,0,0,0,.24.91L45.6,20a.67.67,0,0,0,.67-1.15"/><path class="cls-1" d="M46.5,9.93A27.24,27.24,0,0,0,8,48.46a1.83,1.83,0,0,0,2.58-2.59A23.59,23.59,0,0,1,43.91,12.51a23.06,23.06,0,0,1,2.54,3l-3.18-1.85a3.91,3.91,0,0,0-5.35,1.42l-3.77,6.48a4,4,0,0,0,.59,4.7,2.92,2.92,0,0,0-.12,1.56L28,39.29a2.74,2.74,0,0,0,1,3.71l1,.58,2.74-1.24h0A2.75,2.75,0,0,0,35,41l.38-.66a2.58,2.58,0,0,0,.47-.58l.51-.88a2.44,2.44,0,0,0,.25-.62,8,8,0,0,0,.52-.77l.1-.16a3.68,3.68,0,0,0,.21-.46l.11-.21c.17-.24.38-.54.51-.76l.09-.15a3,3,0,0,0,.25-.6l2.46-4.24a3.29,3.29,0,0,0,.71-.57,3.92,3.92,0,0,0,4.72-1.71l3.56-6.13a23.61,23.61,0,0,1-5.94,23.39A1.83,1.83,0,0,0,45.2,49a1.86,1.86,0,0,0,1.3-.53,27.28,27.28,0,0,0,0-38.53m1.7,11.12-3.76,6.48a1.78,1.78,0,0,1-2.43.65L41.72,28c-.26,0-1.17-.08-1.4.39s-.59.8-.89.7l0,0-2.88,5h0c-.27-.16,0,.28-.18.55l-.09.16c-.16.27-.61.89-.61.89h0l0,0c-.27-.15,0,.29-.18.56l-.09.15c-.16.27-.59.84-.59.84s0,0,0,0c-.27-.15,0,.29-.18.56l-.51.87c-.16.27-.66.27-.39.43a0,0,0,0,1,0,0l-.46.8a.6.6,0,0,1-.81.21h0L30,41.17h0a.6.6,0,0,1-.21-.81l7.29-12.55,0,0-.22-.13c-.31-.2-.22-.66.11-1.17s-.29-1.32-.38-1.45A1.78,1.78,0,0,1,36,22.63l3.77-6.48a1.79,1.79,0,0,1,2.43-.64l5.36,3.11a1.79,1.79,0,0,1,.64,2.43"/><path class="cls-1" d="M125.4,18.34,129.08.13l-8.9,0L117.59,13a4.16,4.16,0,0,1,1.58.89h0a3.68,3.68,0,0,1,1,3.62,5.15,5.15,0,0,1-.66,1.65h2.53l-.63,2a8.76,8.76,0,0,1-1.34,2.66l2.07,3.05h1.51l18.68-.06,1.72-8.51Z"/><path class="cls-1" d="M117.28,27.06l-.77-1.21a6,6,0,0,1-3.81,1.46,3.55,3.55,0,0,1-2.68-.94,2.84,2.84,0,0,1-.62-2.69q.45-2.28,3.51-3.54a3.61,3.61,0,0,1-.67-2.59,3.26,3.26,0,0,1,1.41-2,4.23,4.23,0,0,1,2.41-.75,3.23,3.23,0,0,1,2.28.72,2.19,2.19,0,0,1,.56,2.18,4.52,4.52,0,0,1-2.84,3.05l1.22,1.92a5.22,5.22,0,0,0,.75-1.45h2.15a7.06,7.06,0,0,1-1.81,3l1.95,2.87Zm-1.75-2.82L113.9,21.7c-1.26.51-2,1.18-2.15,2a1.21,1.21,0,0,0,.3,1.13,1.54,1.54,0,0,0,1.16.47,3.61,3.61,0,0,0,2.32-1.08m1.23-6.71a.94.94,0,0,0-.18-.81.87.87,0,0,0-.73-.34,1.31,1.31,0,0,0-.84.31,1.22,1.22,0,0,0-.49.76,1.62,1.62,0,0,0,.11,1,7.69,7.69,0,0,0,.5.84,6.16,6.16,0,0,0,1.05-.71,2,2,0,0,0,.58-1"/><path class="cls-1" d="M108.48,26.73a4.36,4.36,0,0,1-.82-3.84,5.91,5.91,0,0,1,3-3.94,4.34,4.34,0,0,1-.15-2.19,4.74,4.74,0,0,1,2-3h0a5.7,5.7,0,0,1,1.87-.84L117,0l-8.9,0L106.48,8.2l-9.77,0L98.36.06l-8.9,0-5.4,26.72,8.9,0,2-9.87,9.77,0-2,9.87Z"/></g></g></svg>