<svg xmlns="http://www.w3.org/2000/svg" viewBox="0 0 20 30.65"><defs><style>.cls-1{fill:#e86608;}</style></defs><title>pin</title><g id="Capa_2" data-name="Capa 2"><g id="Capa_1-2" data-name="Capa 1"><path class="cls-1" d="M10,25.87c-.55-.81-1-1.6-1.56-2.28-1.17-1.41-2.4-2.76-3.61-4.13a29.93,29.93,0,0,1-3.49-4.58A9.89,9.89,0,0,1,8.32.15,10,10,0,0,1,20,10.88a9.73,9.73,0,0,1-1.87,4.82C17,17.19,15.82,18.6,14.62,20A31.25,31.25,0,0,0,10,25.87ZM15.7,10.09a5.71,5.71,0,1,0-5.82,5.63A5.71,5.71,0,0,0,15.7,10.09Z"/><path class="cls-1" d="M9.88,30.64a36.52,36.52,0,0,1-6.75-.51A4.59,4.59,0,0,1,2,29.74a.83.83,0,0,1-.42-.49c0-.13.25-.38.43-.43a19,19,0,0,1,2.45-.6,42.08,42.08,0,0,1,9.65-.16c1.09.1,2.16.32,3.24.5a2.26,2.26,0,0,1,.74.26c.16.1.36.3.36.45s-.21.36-.37.42a7.7,7.7,0,0,1-1.39.43A32.89,32.89,0,0,1,9.88,30.64Z"/></g></g></svg>