<svg xmlns="http://www.w3.org/2000/svg" viewBox="0 0 91.48 91.49"><defs><style>.cls-1{fill:#fff;}</style></defs><title>rastreo</title><g id="Capa_2" data-name="Capa 2"><g id="Capa_1-2" data-name="Capa 1"><path class="cls-1" d="M58.34,55l-2.9-3.12c-2.18,2.23-4.25,4.33-6.57,6.69-2.82-7.83-7.82-13-15.57-15.77l5.25-5-3.27-3.22-2.79,2.75-1.25,1.24c-1.86,1.82-3.13,1.83-5,0Q20.52,32.9,14.79,27.15c-2.55-2.55-5.11-5.09-7.65-7.65-1.85-1.88-1.86-3.24,0-5.07q6.5-6.49,13-13c1.94-1.93,3.21-1.91,5.13,0l19,19.05c1.88,1.87,1.91,3.15.06,5S40.87,29,39.13,30.8l3.23,3.1c.74-.77,1.59-1.68,2.46-2.58,1.76-1.84,3.64-3.35,6.46-3a2.36,2.36,0,0,0,1.55-.68,7.81,7.81,0,0,1,10.71.53c2.79,2.91,2.82,7.21.13,10.66a2.35,2.35,0,0,0-.51,1.57A5.05,5.05,0,0,1,62,44.53l-3.09,3.66L62,51.26l3.56-3.69c2.31-2.37,3.47-2.36,5.76-.06q9.1,9.14,18.23,18.26a13.46,13.46,0,0,1,1.35,1.48,2.12,2.12,0,0,1,0,3c-2.2,2.36-4.4,4.72-6.66,7s-4.7,4.67-7,7c-2,2-3.19,2-5.21,0q-9.54-9.5-19.06-19c-1.75-1.75-1.78-3.21,0-5S56.49,56.78,58.34,55ZM19.25,10.87l3.44,3.58,3.46-3.29L22.8,7.51Zm-2.68,2.47L13.14,16.9l3.49,3.66L20.34,17ZM70.94,74.6l3.8,4c1-1.1,2.08-2.22,3.09-3.38.17-.19.27-.7.15-.83-1.1-1.18-2.25-2.31-3.35-3.41Zm3.68-15.42c-1.23,1.16-2.49,2.36-3.72,3.54l3.51,3.64,3.74-3.54ZM34.57,26.52,38.24,23l-3.37-3.32-3.64,3.46Zm-2.29,2.62-3.41-3.69-3.81,3.74,3.68,3.43ZM68.57,53.25l-3.63,3.46,3.66,3.51L72,56.76ZM72,68.82l-3.32-3.43L65,68.85l3.44,3.52Zm8.77-3.53-3.59,3.39,3.5,3.64c1.14-1.19,2.32-2.41,3.5-3.62ZM28.56,20.46l3.71-3.66-3.34-3.45-3.86,3.76Zm-5.75-1L19.06,23.1l3.42,3.47L26.36,23ZM66,62.83l-3.59-3.56-3.64,3.41,3.62,3.56Z"/><path class="cls-1" d="M18.79,62.84c-3-4.18-5.87-8.16-7.06-13.05-.63-2.64-.12-3.9,2.23-5.22a14.62,14.62,0,0,1,8.92-1.52C34.37,44.3,42.25,50.5,46.7,61a21.08,21.08,0,0,1,1.09,14.41c-1.3,4.42-3.14,5.35-7.52,3.94s-7.84-3.91-11.53-6.6a23.41,23.41,0,0,1,3-1.65,2.15,2.15,0,0,1,1.71.22c1.52,1,2.94,2.09,4.44,3.08.82.54,1.86,1.4,2.7.6.41-.39.18-1.73-.1-2.53C39.1,68.69,36.6,65.62,34,62.69A49.26,49.26,0,0,0,22.79,53a30.88,30.88,0,0,0-4.55-2.12,4.63,4.63,0,0,0-1.76.09,4.6,4.6,0,0,0,.21,1.74c1,1.77,2.16,3.5,3.36,5.16a2,2,0,0,1,.11,2.62C19.69,61.16,19.32,61.91,18.79,62.84Z"/><path class="cls-1" d="M14.38,72.84c0-2.71,2.06-4.41,4.93-3.83a2,2,0,0,0,2.51-1.25c1.17-2.12,2.46-4.18,3.73-6.25.78-1.27,1.38-1.49,2.56-.63a13,13,0,0,1,2.59,2.64c.7.92.42,1.78-.6,2.42C28,67.21,26,68.59,23.92,69.79a2.3,2.3,0,0,0-1.42,2.75,3.82,3.82,0,0,1-3.74,4.63A4.24,4.24,0,0,1,14.38,72.84Z"/><path class="cls-1" d="M0,77.26C.17,75.85.33,74.44.53,73c.11-.75.47-1.24,1.34-1.15s1,.76.89,1.47A13.88,13.88,0,0,0,5.69,84c3.05,3.7,7.05,5.09,11.73,4.77.38,0,.8-.19,1.12-.07s1,.53,1,.82c0,.46-.31,1.25-.65,1.35-6.25,1.88-14-.22-17.27-6.74A16.1,16.1,0,0,1,0,77.26Z"/><path class="cls-1" d="M6.44,75.22a12.73,12.73,0,0,1,.26-2.6,1.75,1.75,0,0,1,1.17-1c.25,0,.74.62.94,1a3.38,3.38,0,0,1,.06,1.24,8.61,8.61,0,0,0,9,8.74c.33,0,.73-.14,1,0s.88.59.92.93a1.37,1.37,0,0,1-.69,1.1c-5.48,1.6-11.87-1.18-12.59-7.58C6.45,76.41,6.46,75.7,6.44,75.22Z"/></g></g></svg>