<svg xmlns="http://www.w3.org/2000/svg" viewBox="0 0 111.74 87"><defs><style>.cls-1{fill:#fff;}</style></defs><title>segu</title><g id="Capa_2" data-name="Capa 2"><g id="Capa_1-2" data-name="Capa 1"><path class="cls-1" d="M104.57,40.36c-3.35-.94-6.37-1.73-9.34-2.64a7,7,0,0,0-4.24,0c-5.52,1.62-11.06,3.15-16.59,4.7a2.43,2.43,0,0,0-2,2.64c0,5.66-.08,11.32,0,17,.06,2.73.54,5.46.85,8.29-1.43.14-3,.43-4.22-1.13a3,3,0,0,0-2-.85c-7.44-.06-14.88,0-22.31-.07a3.89,3.89,0,0,0-2.53,1.23,3.8,3.8,0,0,1-2,.86q-13.54.09-27.08,0c-4.41,0-6.88-2.5-6.89-6.87,0-6.27,0-12.53,0-18.8a8.93,8.93,0,0,1,2-5.83c.18-.22.34-.45.54-.65,4.78-4.77,7.28-10.71,9.07-17.09C19,16.8,20.57,12.53,22.07,8.25A12.41,12.41,0,0,1,33.81,0H77.73A12.52,12.52,0,0,1,89.8,8.6c2.39,7,4.68,14.11,7.07,21.14a8.91,8.91,0,0,0,1.39,2.55c1.76,2.3,3.61,4.53,5.42,6.8C103.93,39.4,104.13,39.74,104.57,40.36ZM55.73,37.29c8.94,0,17.87,0,26.8,0,4.61,0,7.28-3.85,5.71-8.18Q85,20.27,81.74,11.48c-.87-2.34-2-3.12-4.56-3.12H34.53c-2.51,0-3.65.77-4.54,3.15-1.69,4.51-3.35,9-5,13.54-.47,1.27-.92,2.55-1.38,3.82-1.71,4.67.9,8.41,5.91,8.42Zm.14,12.39c-3.83,0-7.66,0-11.48,0-2,0-2.84,1-2.47,3s.74,3.66,1.13,5.48a2.24,2.24,0,0,0,2.5,1.93c6.87,0,13.73,0,20.59,0a2.2,2.2,0,0,0,2.54-2c.39-1.73.75-3.46,1.1-5.2.42-2.11-.39-3.1-2.56-3.11ZM24.71,60h6a4.2,4.2,0,0,0,4.33-3.24c.72-3.63-.25-6.42-2.53-7.31a1.4,1.4,0,0,0-.4-.11c-4.48-.58-9-1.26-13.45-1.67-2.39-.21-4,1.56-4.17,4-.07,1.3-.06,2.61,0,3.92A4.14,4.14,0,0,0,18.83,60C20.79,60.07,22.75,60,24.71,60Z"/><path class="cls-1" d="M76.59,55.55c0-2.76,0-5.51,0-8.27,0-.82.19-1.24,1.05-1.48,4.9-1.35,9.79-2.78,14.7-4.13a3.54,3.54,0,0,1,1.77,0c4.81,1.35,9.6,2.76,14.42,4.1a1.42,1.42,0,0,1,1.24,1.64c-.06,4.86,0,9.72,0,14.58A23.76,23.76,0,0,1,94.48,84.36a4,4,0,0,1-2.64,0A23.63,23.63,0,0,1,76.62,63c-.05-2.47,0-4.95,0-7.43ZM91.1,65.37c-1.27-1.26-2.43-2.46-3.64-3.61a2.09,2.09,0,0,0-3-.13,2.07,2.07,0,0,0,.11,3c1.62,1.69,3.26,3.34,5,5a2,2,0,0,0,3.1,0q5.19-5.1,10.31-10.3a2,2,0,0,0-2.72-2.95,14.7,14.7,0,0,0-1.62,1.54C96.1,60.36,93.64,62.83,91.1,65.37Z"/><path class="cls-1" d="M31,74.65c0,3,.12,5.9,0,8.78A3.89,3.89,0,0,1,27,87c-3.55.06-7.11.05-10.66,0a4,4,0,0,1-3.91-3.54c-.15-2.88,0-5.77,0-8.76Z"/><path class="cls-1" d="M104.49,20.74c.71,0,1.41,0,2.11,0A5.17,5.17,0,0,1,107,31.07a32.62,32.62,0,0,1-5,0,5.16,5.16,0,0,1,.34-10.3c.75,0,1.5,0,2.24,0Z"/><path class="cls-1" d="M7.36,20.82a17.89,17.89,0,0,1,2.93,0,5.17,5.17,0,0,1-.44,10.21,34.05,34.05,0,0,1-5,0,5.18,5.18,0,0,1,.31-10.34c.75,0,1.5,0,2.25,0Z"/></g></g></svg>