<svg xmlns="http://www.w3.org/2000/svg" viewBox="0 0 30.5 25"><defs><style>.cls-1{fill:#ff7502;}</style></defs><title>twitter</title><g id="Capa_2" data-name="Capa 2"><g id="Capa_1-2" data-name="Capa 1"><path class="cls-1" d="M0,22.24a13.16,13.16,0,0,0,9.14-2.68A6.43,6.43,0,0,1,4.6,17.45a6,6,0,0,1-1.31-2.28A7,7,0,0,0,6,15.07,6.49,6.49,0,0,1,1,8.79a7,7,0,0,0,2.86.77A6.37,6.37,0,0,1,1.28,5.71,6.2,6.2,0,0,1,2,1.17,18.09,18.09,0,0,0,15,7.75c0-.14,0-.24,0-.34A6.31,6.31,0,0,1,25,1.3a1.72,1.72,0,0,1,.33.26c.29.42.65.41,1.1.28a13.94,13.94,0,0,0,3-1.19l.34-.17a6.52,6.52,0,0,1-2.57,3.4,14.08,14.08,0,0,0,3.36-.81,6.92,6.92,0,0,1-.65.86c-.72.72-1.46,1.41-2.19,2.13a.6.6,0,0,0-.2.42A18.37,18.37,0,0,1,24,17.72a16.55,16.55,0,0,1-7.86,6.09,18.22,18.22,0,0,1-11.26.55A16.94,16.94,0,0,1,.26,22.41Z"/></g></g></svg>