<svg xmlns="http://www.w3.org/2000/svg" viewBox="0 0 20 21.37"><defs><style>.cls-1{fill:#71ad00;}</style></defs><title>whats</title><g id="Capa_2" data-name="Capa 2"><g id="Capa_1-2" data-name="Capa 1"><path class="cls-1" d="M.64,21.37c.23-.89.44-1.74.65-2.59S1.74,17,2,16.11a.39.39,0,0,0-.07-.29A10,10,0,0,1,8.54.11a9.68,9.68,0,0,1,9.71,4.25,9.39,9.39,0,0,1,1.66,6.84,9.67,9.67,0,0,1-5.15,7.55,9.62,9.62,0,0,1-8.26.58.89.89,0,0,0-.66,0l-5,2Zm.63-.71c1.55-.6,3.05-1.18,4.54-1.78a.9.9,0,0,1,.72,0,9.38,9.38,0,0,0,6.56.13,9.29,9.29,0,0,0,5.2-4.29A9.55,9.55,0,1,0,.63,11.87a9.37,9.37,0,0,0,1.73,3.86.46.46,0,0,1,.07.3L2,18C1.73,18.84,1.51,19.73,1.27,20.66Z"/><path class="cls-1" d="M3,18.49c.19-.7.38-1.34.56-2,.08-.28.15-.56.24-.84a.38.38,0,0,0-.09-.39A7.91,7.91,0,0,1,1.81,9.69,8.15,8.15,0,0,1,9.1,1.87a8,8,0,0,1,6.81,2.47,7.85,7.85,0,0,1,2.25,6.34A7.85,7.85,0,0,1,14.25,17a7.94,7.94,0,0,1-7.86.37.56.56,0,0,0-.49,0Zm12-5.43c.14-.47-.13-.69-.58-.78l-.07,0-1.54-.61a.57.57,0,0,0-.72.12c-.2.21-.43.38-.62.59a.26.26,0,0,1-.39,0c-.36-.26-.72-.51-1.06-.79A9,9,0,0,1,8.18,9.53a.27.27,0,0,1,.05-.39c.2-.19.37-.42.57-.61a.61.61,0,0,0,.12-.77C8.68,7.18,8.44,6.6,8.24,6c-.09-.3-.25-.37-.54-.42a1.42,1.42,0,0,0-1.39.53,1.94,1.94,0,0,0-.57,1.48A6.33,6.33,0,0,0,6.37,10a9.52,9.52,0,0,0,3.55,3.79,6.28,6.28,0,0,0,3.2,1.05,1.54,1.54,0,0,0,1.15-.4C14.66,14.08,15.17,13.77,15,13.06Z"/></g></g></svg>